<svg version="1.1" xmlns="http://www.w3.org/2000/svg" viewBox="0 0 310.1434861416569 125.58602516726296" width="930.4304584249708" height="376.7580755017889">
  <!-- svg-source:excalidraw -->
  
  <defs>
    <style class="style-fonts">
      @font-face {
        font-family: "Virgil";
        src: url("https://excalidraw.com/Virgil.woff2");
      }
      @font-face {
        font-family: "Cascadia";
        src: url("https://excalidraw.com/Cascadia.woff2");
      }
    </style>
  </defs>
  <g stroke-opacity="0.1" fill-opacity="0.1" stroke-linecap="round" transform="translate(10 10) rotate(0 145.07174307082846 52.79301258363148)"><path d="M0 0 L290.14 0 L290.14 105.59 L0 105.59" stroke="none" stroke-width="0" fill="#fab005"></path><path d="M0 0 C71.12 0, 142.24 0, 290.14 0 M0 0 C65.15 0, 130.3 0, 290.14 0 M290.14 0 C290.14 34.79, 290.14 69.58, 290.14 105.59 M290.14 0 C290.14 37.26, 290.14 74.52, 290.14 105.59 M290.14 105.59 C213.27 105.59, 136.4 105.59, 0 105.59 M290.14 105.59 C229.45 105.59, 168.75 105.59, 0 105.59 M0 105.59 C0 65.8, 0 26.02, 0 0 M0 105.59 C0 70.26, 0 34.93, 0 0" stroke="#fff" stroke-width="1" fill="none"></path></g><g stroke-linecap="round" transform="translate(94.64335982096736 28.324836338945715) rotate(0 15.5 14.5)"><path d="M0 0 L31 0 L31 29 L0 29" stroke="none" stroke-width="0" fill="#fa5252"></path><path d="M0 0 C10.95 0, 21.91 0, 31 0 M0 0 C11.19 0, 22.38 0, 31 0 M31 0 C31 9.93, 31 19.86, 31 29 M31 0 C31 6.97, 31 13.94, 31 29 M31 29 C18.86 29, 6.71 29, 0 29 M31 29 C24.57 29, 18.14 29, 0 29 M0 29 C0 20.45, 0 11.9, 0 0 M0 29 C0 21.38, 0 13.76, 0 0" stroke="#d9480f" stroke-width="1" fill="none"></path></g><g transform="translate(104.64335982096736 33.324836338945715) rotate(0 5.5 9.5)"><text x="5.5" y="14" font-family="Cascadia, Segoe UI Emoji" font-size="16px" fill="#000000" text-anchor="middle" style="white-space: pre;" direction="ltr">a</text></g><g stroke-linecap="round" transform="translate(183.21343818733385 25.706990687845973) rotate(0 15.707015653471899 15.707015653471899)"><path d="M31.41 15.71 C31.41 16.62, 31.33 17.54, 31.18 18.43 C31.02 19.33, 30.78 20.22, 30.47 21.08 C30.16 21.93, 29.76 22.77, 29.31 23.56 C28.86 24.35, 28.32 25.11, 27.74 25.8 C27.15 26.5, 26.5 27.15, 25.8 27.74 C25.11 28.32, 24.35 28.86, 23.56 29.31 C22.77 29.76, 21.93 30.16, 21.08 30.47 C20.22 30.78, 19.33 31.02, 18.43 31.18 C17.54 31.33, 16.62 31.41, 15.71 31.41 C14.8 31.41, 13.87 31.33, 12.98 31.18 C12.08 31.02, 11.19 30.78, 10.33 30.47 C9.48 30.16, 8.64 29.76, 7.85 29.31 C7.07 28.86, 6.31 28.32, 5.61 27.74 C4.91 27.15, 4.26 26.5, 3.67 25.8 C3.09 25.11, 2.56 24.35, 2.1 23.56 C1.65 22.77, 1.26 21.93, 0.95 21.08 C0.64 20.22, 0.4 19.33, 0.24 18.43 C0.08 17.54, 0 16.62, 0 15.71 C0 14.8, 0.08 13.87, 0.24 12.98 C0.4 12.08, 0.64 11.19, 0.95 10.33 C1.26 9.48, 1.65 8.64, 2.1 7.85 C2.56 7.07, 3.09 6.31, 3.67 5.61 C4.26 4.91, 4.91 4.26, 5.61 3.67 C6.31 3.09, 7.07 2.56, 7.85 2.1 C8.64 1.65, 9.48 1.26, 10.33 0.95 C11.19 0.64, 12.08 0.4, 12.98 0.24 C13.87 0.08, 14.8 0, 15.71 0 C16.62 0, 17.54 0.08, 18.43 0.24 C19.33 0.4, 20.22 0.64, 21.08 0.95 C21.93 1.26, 22.77 1.65, 23.56 2.1 C24.35 2.56, 25.11 3.09, 25.8 3.67 C26.5 4.26, 27.15 4.91, 27.74 5.61 C28.32 6.31, 28.86 7.07, 29.31 7.85 C29.76 8.64, 30.16 9.48, 30.47 10.33 C30.78 11.19, 31.02 12.08, 31.18 12.98 C31.33 13.87, 31.37 15.25, 31.41 15.71 C31.45 16.16, 31.45 15.25, 31.41 15.71" stroke="none" stroke-width="0" fill="#7950f2"></path><path d="M31.41 15.71 C31.41 16.62, 31.33 17.54, 31.18 18.43 C31.02 19.33, 30.78 20.22, 30.47 21.08 C30.16 21.93, 29.76 22.77, 29.31 23.56 C28.86 24.35, 28.32 25.11, 27.74 25.8 C27.15 26.5, 26.5 27.15, 25.8 27.74 C25.11 28.32, 24.35 28.86, 23.56 29.31 C22.77 29.76, 21.93 30.16, 21.08 30.47 C20.22 30.78, 19.33 31.02, 18.43 31.18 C17.54 31.33, 16.62 31.41, 15.71 31.41 C14.8 31.41, 13.87 31.33, 12.98 31.18 C12.08 31.02, 11.19 30.78, 10.33 30.47 C9.48 30.16, 8.64 29.76, 7.85 29.31 C7.07 28.86, 6.31 28.32, 5.61 27.74 C4.91 27.15, 4.26 26.5, 3.67 25.8 C3.09 25.11, 2.56 24.35, 2.1 23.56 C1.65 22.77, 1.26 21.93, 0.95 21.08 C0.64 20.22, 0.4 19.33, 0.24 18.43 C0.08 17.54, 0 16.62, 0 15.71 C0 14.8, 0.08 13.87, 0.24 12.98 C0.4 12.08, 0.64 11.19, 0.95 10.33 C1.26 9.48, 1.65 8.64, 2.1 7.85 C2.56 7.07, 3.09 6.31, 3.67 5.61 C4.26 4.91, 4.91 4.26, 5.61 3.67 C6.31 3.09, 7.07 2.56, 7.85 2.1 C8.64 1.65, 9.48 1.26, 10.33 0.95 C11.19 0.64, 12.08 0.4, 12.98 0.24 C13.87 0.08, 14.8 0, 15.71 0 C16.62 0, 17.54 0.08, 18.43 0.24 C19.33 0.4, 20.22 0.64, 21.08 0.95 C21.93 1.26, 22.77 1.65, 23.56 2.1 C24.35 2.56, 25.11 3.09, 25.8 3.67 C26.5 4.26, 27.15 4.91, 27.74 5.61 C28.32 6.31, 28.86 7.07, 29.31 7.85 C29.76 8.64, 30.16 9.48, 30.47 10.33 C30.78 11.19, 31.02 12.08, 31.18 12.98 C31.33 13.87, 31.37 15.25, 31.41 15.71 C31.45 16.16, 31.45 15.25, 31.41 15.71" stroke="#fff" stroke-width="1" fill="none"></path></g><g transform="translate(193.42045384080575 31.914006341317872) rotate(0 5.5 9.5)"><text x="5.5" y="14" font-family="Cascadia, Segoe UI Emoji" font-size="16px" fill="#fff" text-anchor="middle" style="white-space: pre;" direction="ltr">1</text></g><g stroke-linecap="round" transform="translate(184.5223027597558 68.6831278501677) rotate(0 15.707015653471899 15.707015653471899)"><path d="M31.41 15.71 C31.41 16.62, 31.33 17.54, 31.18 18.43 C31.02 19.33, 30.78 20.22, 30.47 21.08 C30.16 21.93, 29.76 22.77, 29.31 23.56 C28.86 24.35, 28.32 25.11, 27.74 25.8 C27.15 26.5, 26.5 27.15, 25.8 27.74 C25.11 28.32, 24.35 28.86, 23.56 29.31 C22.77 29.76, 21.93 30.16, 21.08 30.47 C20.22 30.78, 19.33 31.02, 18.43 31.18 C17.54 31.33, 16.62 31.41, 15.71 31.41 C14.8 31.41, 13.87 31.33, 12.98 31.18 C12.08 31.02, 11.19 30.78, 10.33 30.47 C9.48 30.16, 8.64 29.76, 7.85 29.31 C7.07 28.86, 6.31 28.32, 5.61 27.74 C4.91 27.15, 4.26 26.5, 3.67 25.8 C3.09 25.11, 2.56 24.35, 2.1 23.56 C1.65 22.77, 1.26 21.93, 0.95 21.08 C0.64 20.22, 0.4 19.33, 0.24 18.43 C0.08 17.54, 0 16.62, 0 15.71 C0 14.8, 0.08 13.87, 0.24 12.98 C0.4 12.08, 0.64 11.19, 0.95 10.33 C1.26 9.48, 1.65 8.64, 2.1 7.85 C2.56 7.07, 3.09 6.31, 3.67 5.61 C4.26 4.91, 4.91 4.26, 5.61 3.67 C6.31 3.09, 7.07 2.56, 7.85 2.1 C8.64 1.65, 9.48 1.26, 10.33 0.95 C11.19 0.64, 12.08 0.4, 12.98 0.24 C13.87 0.08, 14.8 0, 15.71 0 C16.62 0, 17.54 0.08, 18.43 0.24 C19.33 0.4, 20.22 0.64, 21.08 0.95 C21.93 1.26, 22.77 1.65, 23.56 2.1 C24.35 2.56, 25.11 3.09, 25.8 3.67 C26.5 4.26, 27.15 4.91, 27.74 5.61 C28.32 6.31, 28.86 7.07, 29.31 7.85 C29.76 8.64, 30.16 9.48, 30.47 10.33 C30.78 11.19, 31.02 12.08, 31.18 12.98 C31.33 13.87, 31.37 15.25, 31.41 15.71 C31.45 16.16, 31.45 15.25, 31.41 15.71" stroke="none" stroke-width="0" fill="#7950f2"></path><path d="M31.41 15.71 C31.41 16.62, 31.33 17.54, 31.18 18.43 C31.02 19.33, 30.78 20.22, 30.47 21.08 C30.16 21.93, 29.76 22.77, 29.31 23.56 C28.86 24.35, 28.32 25.11, 27.74 25.8 C27.15 26.5, 26.5 27.15, 25.8 27.74 C25.11 28.32, 24.35 28.86, 23.56 29.31 C22.77 29.76, 21.93 30.16, 21.08 30.47 C20.22 30.78, 19.33 31.02, 18.43 31.18 C17.54 31.33, 16.62 31.41, 15.71 31.41 C14.8 31.41, 13.87 31.33, 12.98 31.18 C12.08 31.02, 11.19 30.78, 10.33 30.47 C9.48 30.16, 8.64 29.76, 7.85 29.31 C7.07 28.86, 6.31 28.32, 5.61 27.74 C4.91 27.15, 4.26 26.5, 3.67 25.8 C3.09 25.11, 2.56 24.35, 2.1 23.56 C1.65 22.77, 1.26 21.93, 0.95 21.08 C0.64 20.22, 0.4 19.33, 0.24 18.43 C0.08 17.54, 0 16.62, 0 15.71 C0 14.8, 0.08 13.87, 0.24 12.98 C0.4 12.08, 0.64 11.19, 0.95 10.33 C1.26 9.48, 1.65 8.64, 2.1 7.85 C2.56 7.07, 3.09 6.31, 3.67 5.61 C4.26 4.91, 4.91 4.26, 5.61 3.67 C6.31 3.09, 7.07 2.56, 7.85 2.1 C8.64 1.65, 9.48 1.26, 10.33 0.95 C11.19 0.64, 12.08 0.4, 12.98 0.24 C13.87 0.08, 14.8 0, 15.71 0 C16.62 0, 17.54 0.08, 18.43 0.24 C19.33 0.4, 20.22 0.64, 21.08 0.95 C21.93 1.26, 22.77 1.65, 23.56 2.1 C24.35 2.56, 25.11 3.09, 25.8 3.67 C26.5 4.26, 27.15 4.91, 27.74 5.61 C28.32 6.31, 28.86 7.07, 29.31 7.85 C29.76 8.64, 30.16 9.48, 30.47 10.33 C30.78 11.19, 31.02 12.08, 31.18 12.98 C31.33 13.87, 31.37 15.25, 31.41 15.71 C31.45 16.16, 31.45 15.25, 31.41 15.71" stroke="#fff" stroke-width="1" fill="none"></path></g><g transform="translate(194.7293184132277 74.89014350363959) rotate(0 5.5 9.5)"><text x="5.5" y="14" font-family="Cascadia, Segoe UI Emoji" font-size="16px" fill="#fff" text-anchor="middle" style="white-space: pre;" direction="ltr">2</text></g><g stroke-linecap="round"><g transform="translate(126.49364048330108 45.34077481796794) rotate(0 28.359886369202968 0.2181496433204302)"><path d="M0 0 C22.65 0.17, 45.3 0.35, 56.72 0.44" stroke="#5f3dc4" stroke-width="1.5" fill="none" stroke-dasharray="8 9"></path></g><g transform="translate(126.49364048330108 45.34077481796794) rotate(0 28.359886369202968 0.2181496433204302)"><path d="M56.72 0.44 L43.08 6.67 L43.17 -6.01 L56.72 0.44" stroke="none" stroke-width="0" fill="#5f3dc4" fill-rule="evenodd"></path><path d="M56.72 0.44 C51.27 2.93, 45.82 5.42, 43.08 6.67 M43.08 6.67 C43.11 1.96, 43.15 -2.76, 43.17 -6.01 M43.17 -6.01 C47.57 -3.92, 51.96 -1.83, 56.72 0.44 M56.72 0.44 C56.72 0.44, 56.72 0.44, 56.72 0.44" stroke="#5f3dc4" stroke-width="1.5" fill="none"></path></g></g><g stroke-linecap="round"><g transform="translate(125.18477591087913 46.21337339125057) rotate(0 29.2324849424856 17.888545374180012)"><path d="M0 0 C9.74 5.96, 48.72 29.81, 58.46 35.78 M0 0 C9.74 5.96, 48.72 29.81, 58.46 35.78" stroke="#c92a2a" stroke-width="1" fill="none"></path></g><g transform="translate(125.18477591087913 46.21337339125057) rotate(0 29.2324849424856 17.888545374180012)"><path d="M58.46 35.78 L43.56 34.09 L50.18 23.27 L58.46 35.78" stroke="none" stroke-width="0" fill="#c92a2a" fill-rule="evenodd"></path><path d="M58.46 35.78 C55.02 35.39, 51.57 35, 43.56 34.09 M58.46 35.78 C53.85 35.25, 49.23 34.73, 43.56 34.09 M43.56 34.09 C45.24 31.34, 46.92 28.59, 50.18 23.27 M43.56 34.09 C45.67 30.64, 47.78 27.2, 50.18 23.27 M50.18 23.27 C52.77 27.18, 55.36 31.09, 58.46 35.78 M50.18 23.27 C52.77 27.18, 55.36 31.09, 58.46 35.78 M58.46 35.78 C58.46 35.78, 58.46 35.78, 58.46 35.78 M58.46 35.78 C58.46 35.78, 58.46 35.78, 58.46 35.78" stroke="#c92a2a" stroke-width="1" fill="none"></path></g></g></svg>